<?xml version="1.0" standalone="no"?>
<!DOCTYPE svg PUBLIC "-//W3C//DTD SVG 20010904//EN"
 "http://www.w3.org/TR/2001/REC-SVG-20010904/DTD/svg10.dtd">
<svg version="1.0" xmlns="http://www.w3.org/2000/svg"
 width="66.000000pt" height="66.000000pt" viewBox="0 0 66.000000 66.000000"
 preserveAspectRatio="xMidYMid meet">

<g transform="translate(0.000000,66.000000) scale(0.100000,-0.100000)"
fill="#000000" stroke="none">
<path d="M505 635 c-24 -24 -37 -94 -15 -80 6 3 10 16 10 29 0 50 63 73 100
36 24 -24 26 -57 3 -82 -9 -10 -13 -21 -9 -26 11 -10 46 36 46 60 0 27 -26 74
-45 82 -33 12 -66 5 -90 -19z"/>
<path d="M380 590 c-11 -11 -20 -27 -20 -35 0 -19 35 -55 54 -55 42 0 60 64
28 93 -24 22 -38 21 -62 -3z m44 -6 c19 -7 21 -50 4 -57 -18 -6 -48 11 -48 26
0 7 5 18 12 25 14 14 12 14 32 6z"/>
<path d="M286 545 c-9 -9 -13 -21 -10 -27 4 -7 10 -5 16 5 5 10 15 14 25 10
10 -4 14 -2 11 7 -7 21 -24 23 -42 5z"/>
<path d="M482 534 c-44 -31 -17 -124 37 -124 10 0 30 9 45 21 35 28 35 70 0
98 -32 25 -52 26 -82 5z m72 -20 c22 -21 20 -47 -4 -69 -29 -26 -70 -7 -70 33
0 49 42 69 74 36z"/>
<path d="M302 508 c-32 -32 2 -79 43 -60 39 18 27 72 -15 72 -9 0 -21 -5 -28
-12z m43 -28 c0 -8 -8 -16 -17 -18 -13 -2 -18 3 -18 18 0 15 5 20 18 18 9 -2
17 -10 17 -18z"/>
<path d="M175 473 c-28 -7 -51 -29 -64 -62 -10 -22 -18 -27 -48 -28 -19 -1
-39 -7 -43 -14 -12 -18 -1 -39 21 -39 23 0 23 -3 4 -41 -12 -23 -15 -58 -13
-157 l3 -127 45 0 c42 0 45 2 48 27 l3 28 199 0 199 0 3 -27 c3 -25 7 -28 43
-28 l40 0 0 140 c-1 77 -5 150 -9 161 -6 17 -3 22 13 27 12 3 21 12 21 21 0
19 -42 38 -64 30 -8 -3 -17 -1 -21 5 -11 19 -27 12 -20 -9 6 -20 2 -20 -204
-20 -134 0 -211 -4 -211 -10 0 -6 80 -10 219 -10 l219 0 21 -36 c15 -25 21
-52 21 -95 0 -59 0 -59 -29 -59 -17 0 -33 -4 -36 -10 -4 -6 8 -10 29 -10 37 0
47 -15 24 -38 -17 -17 -509 -17 -526 0 -35 35 -18 38 223 38 150 0 235 4 235
10 0 6 -85 10 -235 10 l-235 0 0 55 c0 47 7 66 50 141 27 48 51 91 52 96 2 5
32 12 66 15 34 3 62 10 62 14 0 9 -70 10 -105 2z m-100 -114 c10 -14 1 -21
-19 -13 -9 3 -13 10 -10 15 7 12 21 11 29 -2z m530 5 c13 -5 14 -8 3 -15 -19
-13 -28 -11 -28 6 0 17 2 18 25 9z m-509 -304 c8 0 14 -9 14 -20 0 -16 -7 -20
-30 -20 -26 0 -30 4 -30 26 0 20 4 25 16 20 9 -3 22 -6 30 -6z m504 -15 c0
-20 -5 -25 -25 -25 -30 0 -36 36 -7 43 31 8 32 7 32 -18z"/>
<path d="M380 470 c0 -5 14 -10 30 -10 17 0 30 5 30 10 0 6 -13 10 -30 10 -16
0 -30 -4 -30 -10z"/>
<path d="M200 435 c-15 -18 -10 -45 13 -59 34 -22 73 27 47 59 -16 19 -44 19
-60 0z m45 -25 c0 -22 -29 -18 -33 3 -3 14 1 18 15 15 10 -2 18 -10 18 -18z"/>
<path d="M97 273 c-11 -11 -8 -40 6 -50 6 -6 33 -13 60 -16 54 -8 60 3 26 47
-15 18 -30 26 -53 26 -18 0 -36 -3 -39 -7z m74 -29 c11 -14 9 -15 -21 -12 -18
2 -35 9 -38 16 -6 18 43 15 59 -4z"/>
<path d="M471 254 c-34 -44 -28 -55 27 -47 56 7 74 19 70 47 -2 16 -11 22 -39
24 -30 3 -41 -2 -58 -24z m77 -6 c-5 -15 -68 -24 -68 -10 0 15 13 22 43 22 18
0 27 -4 25 -12z"/>
<path d="M225 260 c-4 -6 32 -10 100 -10 68 0 104 4 100 10 -3 6 -48 10 -100
10 -52 0 -97 -4 -100 -10z"/>
<path d="M250 200 c0 -6 33 -10 80 -10 47 0 80 4 80 10 0 6 -33 10 -80 10 -47
0 -80 -4 -80 -10z"/>
</g>
</svg>
