<?xml version="1.0" standalone="no"?>
<!DOCTYPE svg PUBLIC "-//W3C//DTD SVG 20010904//EN"
 "http://www.w3.org/TR/2001/REC-SVG-20010904/DTD/svg10.dtd">
<svg version="1.0" xmlns="http://www.w3.org/2000/svg"
 width="66.000000pt" height="66.000000pt" viewBox="0 0 66.000000 66.000000"
 preserveAspectRatio="xMidYMid meet">

<g transform="translate(0.000000,66.000000) scale(0.100000,-0.100000)"
fill="#000000" stroke="none">
<path d="M101 563 c-48 -47 -66 -106 -53 -168 11 -51 92 -203 133 -250 57 -64
144 -90 218 -64 50 18 55 39 23 101 -33 63 -64 79 -117 59 -19 -7 -39 -10 -44
-7 -15 10 -81 127 -81 145 0 10 7 24 15 31 13 10 28 2 94 -49 44 -33 88 -61
98 -61 10 0 60 34 112 75 51 41 95 75 97 75 2 0 4 -54 4 -120 l0 -119 -72 -3
c-46 -2 -73 -7 -76 -15 -5 -18 149 -18 166 -1 15 15 17 275 2 298 -8 12 -44
16 -197 19 l-188 3 -30 42 c-17 22 -39 42 -48 44 -10 2 -34 -13 -56 -35z m84
-19 c9 -14 19 -40 22 -57 4 -27 0 -36 -26 -55 -41 -30 -39 -52 10 -140 47 -84
73 -101 120 -76 17 8 37 13 44 10 19 -7 68 -93 60 -105 -12 -20 -79 -31 -118
-20 -55 15 -102 61 -157 155 -74 125 -85 185 -50 254 32 63 67 76 95 34z m385
-78 c-46 -43 -174 -136 -186 -136 -8 0 -44 23 -79 52 -46 37 -65 58 -65 75 l0
23 172 0 c146 0 170 -2 158 -14z"/>
</g>
</svg>
