<?xml version="1.0" standalone="no"?>
<!DOCTYPE svg PUBLIC "-//W3C//DTD SVG 20010904//EN"
 "http://www.w3.org/TR/2001/REC-SVG-20010904/DTD/svg10.dtd">
<svg version="1.0" xmlns="http://www.w3.org/2000/svg"
 width="66.000000pt" height="66.000000pt" viewBox="0 0 66.000000 66.000000"
 preserveAspectRatio="xMidYMid meet">

<g transform="translate(0.000000,66.000000) scale(0.100000,-0.100000)"
fill="#000000" stroke="none">
<path d="M340 635 c-45 -33 -71 -76 -85 -139 -13 -59 -34 -70 -70 -36 l-23 21
-25 -33 c-63 -82 -82 -179 -55 -270 15 -50 78 -122 132 -151 58 -31 174 -31
232 0 54 29 117 101 132 151 16 53 15 125 -2 165 -7 18 -39 64 -70 102 -31 39
-73 103 -93 143 -20 39 -37 72 -38 72 0 0 -16 -11 -35 -25z m49 -85 c13 -27
48 -80 78 -117 72 -90 85 -117 85 -175 0 -177 -213 -282 -355 -174 -86 66
-114 177 -70 277 23 52 39 67 56 50 18 -18 65 -13 87 9 11 11 20 33 20 49 0
16 5 42 11 58 10 28 47 73 58 73 3 -1 17 -23 30 -50z"/>
<path d="M232 318 c-15 -15 -15 -51 0 -66 15 -15 51 -15 66 0 28 28 7 78 -33
78 -12 0 -26 -5 -33 -12z m44 -44 c-5 -13 -10 -14 -18 -6 -6 6 -8 18 -4 28 5
13 10 14 18 6 6 -6 8 -18 4 -28z"/>
<path d="M358 313 c-14 -16 -84 -119 -102 -150 -5 -9 -1 -13 12 -13 13 0 39
29 81 90 50 73 58 90 43 90 -10 0 -26 -8 -34 -17z"/>
<path d="M362 238 c-20 -20 -14 -66 9 -79 33 -17 69 3 69 39 0 33 -16 52 -45
52 -12 0 -26 -5 -33 -12z m43 -48 c-5 -8 -11 -8 -17 -2 -6 6 -7 16 -3 22 5 8
11 8 17 2 6 -6 7 -16 3 -22z"/>
</g>
</svg>
