<svg width="297" height="94" viewBox="0 0 297 94" fill="none" xmlns="http://www.w3.org/2000/svg">
<path d="M116.83 85.695L116.485 86.085V76.5H117.955V86.085L117.58 85.695H122.695L122.32 86.085V76.5H123.79V87H110.635V76.5H112.12V86.085L111.745 85.695H116.83ZM126.816 87V79.05H128.256V84.84L133.131 79.05H134.436V87H132.996V81.21L128.136 87H126.816ZM137.231 87V79.05H138.671V82.425H143.201V79.05H144.641V87H143.201V83.67H138.671V87H137.231ZM150.846 87.09C150.046 87.09 149.336 86.915 148.716 86.565C148.096 86.215 147.606 85.735 147.246 85.125C146.886 84.505 146.706 83.805 146.706 83.025C146.706 82.235 146.886 81.535 147.246 80.925C147.606 80.315 148.096 79.84 148.716 79.5C149.336 79.15 150.046 78.975 150.846 78.975C151.636 78.975 152.341 79.15 152.961 79.5C153.591 79.84 154.081 80.315 154.431 80.925C154.791 81.525 154.971 82.225 154.971 83.025C154.971 83.815 154.791 84.515 154.431 85.125C154.081 85.735 153.591 86.215 152.961 86.565C152.341 86.915 151.636 87.09 150.846 87.09ZM150.846 85.83C151.356 85.83 151.811 85.715 152.211 85.485C152.621 85.255 152.941 84.93 153.171 84.51C153.401 84.08 153.516 83.585 153.516 83.025C153.516 82.455 153.401 81.965 153.171 81.555C152.941 81.135 152.621 80.81 152.211 80.58C151.811 80.35 151.356 80.235 150.846 80.235C150.336 80.235 149.881 80.35 149.481 80.58C149.081 80.81 148.761 81.135 148.521 81.555C148.281 81.965 148.161 82.455 148.161 83.025C148.161 83.585 148.281 84.08 148.521 84.51C148.761 84.93 149.081 85.255 149.481 85.485C149.881 85.715 150.336 85.83 150.846 85.83ZM157.05 87V79.05H158.535L161.955 84.93H161.355L164.865 79.05H166.215V87H164.91V80.67L165.15 80.805L161.94 86.1H161.31L158.085 80.7L158.37 80.64V87H157.05ZM172.423 87.09C171.623 87.09 170.913 86.915 170.293 86.565C169.673 86.215 169.183 85.735 168.823 85.125C168.463 84.505 168.283 83.805 168.283 83.025C168.283 82.235 168.463 81.535 168.823 80.925C169.183 80.315 169.673 79.84 170.293 79.5C170.913 79.15 171.623 78.975 172.423 78.975C173.213 78.975 173.918 79.15 174.538 79.5C175.168 79.84 175.658 80.315 176.008 80.925C176.368 81.525 176.548 82.225 176.548 83.025C176.548 83.815 176.368 84.515 176.008 85.125C175.658 85.735 175.168 86.215 174.538 86.565C173.918 86.915 173.213 87.09 172.423 87.09ZM172.423 85.83C172.933 85.83 173.388 85.715 173.788 85.485C174.198 85.255 174.518 84.93 174.748 84.51C174.978 84.08 175.093 83.585 175.093 83.025C175.093 82.455 174.978 81.965 174.748 81.555C174.518 81.135 174.198 80.81 173.788 80.58C173.388 80.35 172.933 80.235 172.423 80.235C171.913 80.235 171.458 80.35 171.058 80.58C170.658 80.81 170.338 81.135 170.098 81.555C169.858 81.965 169.738 82.455 169.738 83.025C169.738 83.585 169.858 84.08 170.098 84.51C170.338 84.93 170.658 85.255 171.058 85.485C171.458 85.715 171.913 85.83 172.423 85.83ZM178.627 87V79.05H180.067V82.425H184.597V79.05H186.037V87H184.597V83.67H180.067V87H178.627ZM190.412 87V79.935L190.772 80.31H187.502V79.05H194.762V80.31H191.507L191.852 79.935V87H190.412ZM201.11 87V85.32L201.035 85.005V82.14C201.035 81.53 200.855 81.06 200.495 80.73C200.145 80.39 199.615 80.22 198.905 80.22C198.435 80.22 197.975 80.3 197.525 80.46C197.075 80.61 196.695 80.815 196.385 81.075L195.785 79.995C196.195 79.665 196.685 79.415 197.255 79.245C197.835 79.065 198.44 78.975 199.07 78.975C200.16 78.975 201 79.24 201.59 79.77C202.18 80.3 202.475 81.11 202.475 82.2V87H201.11ZM198.5 87.09C197.91 87.09 197.39 86.99 196.94 86.79C196.5 86.59 196.16 86.315 195.92 85.965C195.68 85.605 195.56 85.2 195.56 84.75C195.56 84.32 195.66 83.93 195.86 83.58C196.07 83.23 196.405 82.95 196.865 82.74C197.335 82.53 197.965 82.425 198.755 82.425H201.275V83.46H198.815C198.095 83.46 197.61 83.58 197.36 83.82C197.11 84.06 196.985 84.35 196.985 84.69C196.985 85.08 197.14 85.395 197.45 85.635C197.76 85.865 198.19 85.98 198.74 85.98C199.28 85.98 199.75 85.86 200.15 85.62C200.56 85.38 200.855 85.03 201.035 84.57L201.32 85.56C201.13 86.03 200.795 86.405 200.315 86.685C199.835 86.955 199.23 87.09 198.5 87.09ZM214.503 87L211.968 83.13L213.153 82.41L216.213 87H214.503ZM210.318 83.64V82.41H212.898V83.64H210.318ZM213.288 83.19L211.923 83.01L214.458 79.05H216.003L213.288 83.19ZM205.578 87H203.868L206.913 82.41L208.098 83.13L205.578 87ZM210.753 87H209.313V79.05H210.753V87ZM209.748 83.64H207.183V82.41H209.748V83.64ZM206.793 83.19L204.078 79.05H205.608L208.143 83.01L206.793 83.19ZM217.797 87V79.05H219.237V84.84L224.112 79.05H225.417V87H223.977V81.21L219.117 87H217.797ZM232.241 87V79.05H233.681V84.84L238.556 79.05H239.861V87H238.421V81.21L233.561 87H232.241ZM246.684 87V79.05H248.169L251.589 84.93H250.989L254.499 79.05H255.849V87H254.544V80.67L254.784 80.805L251.574 86.1H250.944L247.719 80.7L248.004 80.64V87H246.684ZM262.057 87.09C261.257 87.09 260.547 86.915 259.927 86.565C259.307 86.215 258.817 85.735 258.457 85.125C258.097 84.505 257.917 83.805 257.917 83.025C257.917 82.235 258.097 81.535 258.457 80.925C258.817 80.315 259.307 79.84 259.927 79.5C260.547 79.15 261.257 78.975 262.057 78.975C262.847 78.975 263.552 79.15 264.172 79.5C264.802 79.84 265.292 80.315 265.642 80.925C266.002 81.525 266.182 82.225 266.182 83.025C266.182 83.815 266.002 84.515 265.642 85.125C265.292 85.735 264.802 86.215 264.172 86.565C263.552 86.915 262.847 87.09 262.057 87.09ZM262.057 85.83C262.567 85.83 263.022 85.715 263.422 85.485C263.832 85.255 264.152 84.93 264.382 84.51C264.612 84.08 264.727 83.585 264.727 83.025C264.727 82.455 264.612 81.965 264.382 81.555C264.152 81.135 263.832 80.81 263.422 80.58C263.022 80.35 262.567 80.235 262.057 80.235C261.547 80.235 261.092 80.35 260.692 80.58C260.292 80.81 259.972 81.135 259.732 81.555C259.492 81.965 259.372 82.455 259.372 83.025C259.372 83.585 259.492 84.08 259.732 84.51C259.972 84.93 260.292 85.255 260.692 85.485C261.092 85.715 261.547 85.83 262.057 85.83ZM268.261 87V79.05H269.701V84.84L274.576 79.05H275.881V87H274.441V81.21L269.581 87H268.261ZM271.981 78.015C271.251 78.015 270.676 77.84 270.256 77.49C269.846 77.13 269.636 76.615 269.626 75.945H270.601C270.611 76.325 270.736 76.625 270.976 76.845C271.226 77.065 271.556 77.175 271.966 77.175C272.376 77.175 272.706 77.065 272.956 76.845C273.206 76.625 273.336 76.325 273.346 75.945H274.351C274.341 76.615 274.126 77.13 273.706 77.49C273.286 77.84 272.711 78.015 271.981 78.015ZM284.436 87L281.361 83.13L282.546 82.41L286.131 87H284.436ZM278.676 87V79.05H280.116V87H278.676ZM279.681 83.64V82.41H282.306V83.64H279.681ZM282.666 83.19L281.331 83.01L284.376 79.05H285.921L282.666 83.19ZM287.641 87V79.05H289.081V84.84L293.956 79.05H295.261V87H293.821V81.21L288.961 87H287.641Z" fill="white"/>
<path fill-rule="evenodd" clip-rule="evenodd" d="M2.44372 17.1265V34.2531L22.6455 34.2258L42.8473 34.1985V17.0992V0H38.4354H34.0235V13.4166V26.8332H30.3083H26.593V13.4166V0H22.1811H17.7692V13.4166V26.8332H14.5184H11.2675V13.4166V0H6.8556H2.44372V17.1265ZM57.1882 6.13C56.1206 9.50173 53.7428 17.1524 51.9047 23.1321L48.5628 34.0042L52.2641 34.1392C54.3005 34.2137 56.0472 34.1938 56.1461 34.0953C56.245 33.9967 57.5393 29.1478 59.0222 23.3199C60.9035 15.9264 61.9248 12.6838 62.3998 12.5926C62.9251 12.4918 63.5822 14.6061 65.2745 21.845C66.4811 27.0058 67.5993 31.9149 67.7591 32.7536L68.0503 34.2794L72.3995 34.1985C74.7921 34.154 76.7491 34.0203 76.7491 33.901C76.7491 33.7816 76.4482 32.6111 76.0804 31.2996C73.3306 21.4934 68.3568 3.57622 67.9374 1.96623L67.4252 0H63.2776H59.1299L57.1882 6.13ZM2.44372 40.2498V43.0257H6.8556H11.2675V40.2498C11.2675 38.0907 11.1128 37.474 10.5709 37.474C10.0447 37.474 9.87426 38.0393 9.87426 39.7872C9.87426 41.9463 9.79671 42.1004 8.71324 42.1004C7.62977 42.1004 7.55222 41.9463 7.55222 39.7872C7.55222 38.0393 7.38178 37.474 6.8556 37.474C6.32943 37.474 6.15899 38.0393 6.15899 39.7872C6.15899 41.9463 6.08143 42.1004 4.99797 42.1004C3.9145 42.1004 3.83695 41.9463 3.83695 39.7872C3.83695 38.0393 3.66651 37.474 3.14033 37.474C2.59837 37.474 2.44372 38.0907 2.44372 40.2498ZM13.1251 40.2498C13.1251 42.8249 13.2013 43.0257 14.1765 43.0257C14.902 43.0257 15.5837 42.4524 16.376 41.1751C17.0076 40.1573 17.7056 39.3245 17.9276 39.3245C18.1496 39.3245 18.2513 40.1573 18.1542 41.1751C18.0311 42.4599 18.1584 43.0257 18.5699 43.0257C18.9846 43.0257 19.1624 42.1929 19.1624 40.2498C19.1624 37.8404 19.0468 37.474 18.2884 37.474C17.7581 37.474 16.8478 38.3377 15.9719 39.6715L14.5295 41.8691L14.5239 39.6715C14.5197 38.0291 14.3423 37.474 13.8217 37.474C13.2798 37.474 13.1251 38.0907 13.1251 40.2498ZM21.4845 40.2498C21.4845 42.409 21.6391 43.0257 22.1811 43.0257C22.6144 43.0257 22.8777 42.5889 22.8777 41.8691C22.8777 40.9438 23.1099 40.7125 24.0387 40.7125C24.9676 40.7125 25.1998 40.9438 25.1998 41.8691C25.1998 42.5889 25.4631 43.0257 25.8964 43.0257C26.4383 43.0257 26.593 42.409 26.593 40.2498C26.593 38.0907 26.4383 37.474 25.8964 37.474C25.4631 37.474 25.1998 37.9107 25.1998 38.6306C25.1998 39.5559 24.9676 39.7872 24.0387 39.7872C23.1099 39.7872 22.8777 39.5559 22.8777 38.6306C22.8777 37.9107 22.6144 37.474 22.1811 37.474C21.6391 37.474 21.4845 38.0907 21.4845 40.2498ZM28.6828 40.2498C28.6828 42.1619 28.8635 43.0257 29.2633 43.0257C29.5828 43.0257 29.8438 42.5052 29.8438 41.8691C29.8438 40.8924 30.0607 40.7125 31.2371 40.7125C32.4134 40.7125 32.6303 40.8924 32.6303 41.8691C32.6303 42.5889 32.8936 43.0257 33.3269 43.0257C33.8689 43.0257 34.0235 42.409 34.0235 40.2498C34.0235 38.0907 33.8689 37.474 33.3269 37.474C32.8936 37.474 32.6303 37.9107 32.6303 38.6306C32.6303 39.6072 32.4134 39.7872 31.2371 39.7872C30.0607 39.7872 29.8438 39.6072 29.8438 38.6306C29.8438 37.9944 29.5828 37.474 29.2633 37.474C28.8635 37.474 28.6828 38.3377 28.6828 40.2498ZM36.3456 37.9602C36.3456 38.2975 36.7603 38.396 37.4536 38.2225C38.1182 38.0564 38.767 38.192 39.0749 38.5621C39.7492 39.3713 39.2774 39.7872 37.6845 39.7872C36.2597 39.7872 35.414 40.8332 35.7632 42.1638C35.949 42.8707 36.3901 43.0035 38.277 42.922L40.5657 42.8226L40.4291 40.2642L40.293 37.7053L38.3193 37.5633C37.044 37.4712 36.3456 37.6118 36.3456 37.9602ZM42.9634 37.7802C42.2245 38.0773 42.2097 39.8922 42.9402 40.6199C43.3735 41.0516 43.3735 41.2986 42.9402 41.7303C42.205 42.4626 42.2329 43.0257 43.0047 43.0257C43.347 43.0257 43.8727 42.489 44.1727 41.8325C44.8029 40.4548 45.7981 40.5565 46.0146 42.0208C46.0958 42.5737 46.4093 43.0257 46.7112 43.0257C47.0716 43.0257 47.2592 42.0749 47.2592 40.2498V37.474L45.4015 37.5105C44.3798 37.5304 43.2829 37.6521 42.9634 37.7802ZM52.7731 39.3555C52.6073 40.3905 52.1866 41.5207 51.8387 41.8672C50.9786 42.724 51.0441 43.0257 52.09 43.0257C52.9835 43.0257 53.9931 41.0257 53.9931 39.2556C53.9931 38.7078 54.3275 38.3993 54.9219 38.3993C55.7267 38.3993 55.8507 38.7078 55.8507 40.7125C55.8507 42.4603 56.0212 43.0257 56.5474 43.0257C57.0893 43.0257 57.244 42.409 57.244 40.2498V37.474H55.1597C53.0815 37.474 53.0745 37.4795 52.7731 39.3555ZM59.1016 40.2498C59.1016 42.8212 59.1787 43.0252 60.1465 43.022C60.877 43.0196 61.51 42.4626 62.2503 41.1714C63.592 38.8309 64.0494 38.8318 63.8251 41.1751C63.6853 42.6389 63.8042 43.0257 64.3935 43.0257C64.995 43.0257 65.1389 42.4895 65.1389 40.2498C65.1389 37.8404 65.0233 37.474 64.2649 37.474C63.7345 37.474 62.8243 38.3377 61.9484 39.6715L60.506 41.8691L60.5004 39.6715C60.4962 38.0291 60.3188 37.474 59.7982 37.474C59.2562 37.474 59.1016 38.0907 59.1016 40.2498ZM67.2288 40.2498C67.2288 42.1619 67.4094 43.0257 67.8093 43.0257C68.1961 43.0257 68.3898 42.2544 68.3898 40.7125C68.3898 38.4506 68.4209 38.3993 69.783 38.3993C70.5493 38.3993 71.1762 38.1911 71.1762 37.9366C71.1762 37.6822 70.2883 37.474 69.2025 37.474H67.2288V40.2498ZM73.0339 37.9658C73.0339 38.2359 73.3994 38.4205 73.8466 38.3752C75.3471 38.223 75.8203 38.3951 75.8203 39.0932C75.8203 39.5494 75.3624 39.7872 74.4838 39.7872C72.9596 39.7872 71.9527 40.7416 72.1896 41.9625C72.3191 42.6306 72.83 42.8022 74.7824 42.8332L77.2135 42.8721V40.7282C77.2135 39.5489 76.9628 38.3345 76.6563 38.0291C75.9671 37.3426 73.0339 37.2912 73.0339 37.9658ZM46.0099 39.2089C45.9235 39.6544 45.441 40.0185 44.9371 40.0185C44.4332 40.0185 43.9507 39.6544 43.8643 39.2089C43.7473 38.6023 44.0167 38.3993 44.9371 38.3993C45.8576 38.3993 46.1269 38.6023 46.0099 39.2089ZM39.341 40.675C39.7358 41.3116 38.2789 42.563 37.4931 42.2628C36.6642 41.9459 36.6293 41.5401 37.3673 40.805C38.0304 40.1443 38.9732 40.0823 39.341 40.675ZM75.8203 40.8873C75.8203 41.7409 74.5892 42.7175 73.9831 42.3442C73.3153 41.9329 73.3738 40.8397 74.0788 40.5561C75.1599 40.1217 75.8203 40.247 75.8203 40.8873ZM16.4823 54.8263L9.91606 60.6125L5.91936 59.9745C1.94773 59.3412 1.91801 59.344 1.23301 60.3854C0.854049 60.9618 0.42122 62.1841 0.271681 63.1015L0 64.7698H2.38288C3.69344 64.7698 4.76576 64.8531 4.76576 64.9553C4.76576 65.0571 4.24516 66.2544 3.60939 67.6155C2.47576 70.0407 2.45254 70.3183 2.44836 81.4841C2.44465 90.8892 2.56168 92.9752 3.11851 93.4356C3.82209 94.0176 16.415 94.2327 17.3155 93.6784C17.5649 93.5248 17.7692 92.5787 17.7692 91.5757V89.7525H40.0608H62.3525L62.3594 91.256C62.3724 93.9366 62.5118 93.9866 69.9544 93.9741C73.6989 93.968 76.9683 93.8357 77.22 93.6808C77.5024 93.5073 77.6756 88.7522 77.6724 81.282C77.6668 69.2255 77.6608 69.1547 76.5114 67.1515C75.8761 66.0439 75.3559 65.0553 75.3559 64.9539C75.3559 64.8526 76.4008 64.7698 77.678 64.7698C79.9368 64.7698 80 64.7328 80 63.412C80 62.6653 79.7855 61.492 79.5231 60.805C79.0475 59.5582 79.0387 59.5558 75.5593 59.87C73.6413 60.0435 71.8064 60.2864 71.4814 60.4108C71.1567 60.5353 68.3949 58.5205 65.3446 55.9338C62.2939 53.3472 59.1518 50.7379 58.3613 50.1355L56.924 49.04H39.9865H23.0486L16.4823 54.8263ZM61.7381 57.5253L67.7373 63.2352L39.4673 63.2005L11.1978 63.1658L16.9899 57.4906L22.7825 51.8159H39.2607H55.7383L61.7381 57.5253ZM16.2901 72.3386C17.1622 73.2079 17.5077 74.124 17.6619 75.9801C17.8435 78.161 17.7172 78.6398 16.6165 79.9426C15.5038 81.2598 15.0961 81.4249 12.9551 81.4249C11.5392 81.4249 10.125 81.1316 9.52642 80.7138C7.67343 79.4208 7.15747 75.0136 8.6329 73.0761C10.5918 70.5038 14.1083 70.1651 16.2901 72.3386ZM69.7983 71.486C71.5306 72.3784 72.5695 74.3743 72.5695 76.811C72.5695 79.6049 70.6477 81.4249 67.6983 81.4249C64.9471 81.4249 63.8298 80.8128 63.0096 78.8582C62.1583 76.8276 62.1806 75.6798 63.1099 73.7284C64.3912 71.0391 67.141 70.117 69.7983 71.486ZM23.3951 75.4388C24.7177 76.1439 25.2601 77.8764 24.6782 79.5383C23.5367 82.8003 19.1624 81.5045 19.1624 77.9038C19.1624 77.1052 21.2031 74.9479 21.9582 74.9479C22.2419 74.9479 22.8884 75.1686 23.3951 75.4388ZM51.6711 75.4855C51.6711 75.7812 51.3195 77.1344 50.8895 78.4927L50.1083 80.9623H40.0381H29.9683L28.9773 78.2544C28.432 76.7652 27.9862 75.412 27.9862 75.2473C27.9862 75.0826 33.3153 74.9479 39.8286 74.9479C48.5154 74.9479 51.6711 75.0914 51.6711 75.4855ZM59.2484 75.48C60.623 76.2008 60.9439 76.7707 60.9523 78.507C60.9639 80.9868 58.066 82.309 56.2357 80.6592C55.2568 79.7765 55.1072 77.3259 55.9668 76.2461C56.4466 75.6437 57.1706 75.2126 58.0873 74.9845C58.1677 74.9646 58.6901 75.1871 59.2484 75.48Z" fill="white"/>
<path d="M124.872 21.976L123.496 23.384V4.6H129.736V23.384L128.296 21.976H136.968L135.528 23.384V4.6H141.768V27H111.4V4.6H117.64V23.384L116.264 21.976H124.872ZM147.204 27V9.656H153.252V18.744L160.516 9.656H166.116V27H160.036V17.88L152.836 27H147.204ZM171.204 27V9.656H177.252V16.088H183.492V9.656H189.572V27H183.492V20.92H177.252V27H171.204ZM194.673 27V9.656H200.721V16.088H206.961V9.656H213.041V27H206.961V20.92H200.721V27H194.673ZM228.414 27V23.768L227.998 22.968V17.016C227.998 16.056 227.699 15.32 227.102 14.808C226.526 14.2747 225.598 14.008 224.318 14.008C223.486 14.008 222.643 14.1467 221.79 14.424C220.936 14.68 220.211 15.0427 219.614 15.512L217.566 11.384C218.547 10.744 219.72 10.2533 221.086 9.912C222.472 9.54933 223.848 9.368 225.214 9.368C228.03 9.368 230.206 10.0187 231.742 11.32C233.299 12.6 234.078 14.616 234.078 17.368V27H228.414ZM223.294 27.288C221.907 27.288 220.734 27.0533 219.774 26.584C218.814 26.1147 218.078 25.4747 217.566 24.664C217.075 23.8533 216.83 22.9467 216.83 21.944C216.83 20.8773 217.096 19.96 217.63 19.192C218.184 18.4027 219.027 17.8053 220.158 17.4C221.288 16.9733 222.75 16.76 224.542 16.76H228.638V19.928H225.374C224.392 19.928 223.699 20.088 223.294 20.408C222.91 20.728 222.718 21.1547 222.718 21.688C222.718 22.2213 222.92 22.648 223.326 22.968C223.731 23.288 224.286 23.448 224.99 23.448C225.651 23.448 226.248 23.288 226.782 22.968C227.336 22.6267 227.742 22.1147 227.998 21.432L228.83 23.672C228.51 24.8667 227.88 25.7733 226.942 26.392C226.024 26.9893 224.808 27.288 223.294 27.288ZM249.648 27V21.368L250.448 22.296H246.032C243.45 22.296 241.413 21.7733 239.92 20.728C238.426 19.6613 237.68 18.1467 237.68 16.184C237.68 14.0933 238.458 12.4827 240.016 11.352C241.573 10.2213 243.674 9.656 246.32 9.656H255.056V27H249.648ZM237.392 27L241.968 20.408H248.112L243.824 27H237.392ZM249.648 19.544V12.952L250.448 14.456H246.448C245.637 14.456 245.008 14.616 244.56 14.936C244.112 15.2347 243.888 15.7253 243.888 16.408C243.888 17.7307 244.73 18.392 246.416 18.392H250.448L249.648 19.544ZM112.328 59.384C111.901 59.384 111.443 59.352 110.952 59.288C110.483 59.224 109.981 59.128 109.448 59L109.8 53.816C110.099 53.88 110.387 53.912 110.664 53.912C111.539 53.912 112.2 53.5707 112.648 52.888C113.096 52.184 113.405 51.2027 113.576 49.944C113.768 48.6853 113.885 47.2133 113.928 45.528L114.248 36.6H132.296V59H126.056V40.216L127.432 41.624H118.376L119.656 40.152L119.496 45.272C119.432 47.448 119.283 49.4107 119.048 51.16C118.813 52.888 118.44 54.3707 117.928 55.608C117.416 56.824 116.701 57.7627 115.784 58.424C114.888 59.064 113.736 59.384 112.328 59.384ZM137.736 59V41.656H143.784V50.744L151.048 41.656H156.648V59H150.568V49.88L143.368 59H137.736ZM161.736 59V41.656H176.264V46.488H166.472L167.784 45.176V59H161.736ZM189.914 59V55.768L189.498 54.968V49.016C189.498 48.056 189.199 47.32 188.602 46.808C188.026 46.2747 187.098 46.008 185.818 46.008C184.986 46.008 184.143 46.1467 183.29 46.424C182.436 46.68 181.711 47.0427 181.114 47.512L179.066 43.384C180.047 42.744 181.22 42.2533 182.586 41.912C183.972 41.5493 185.348 41.368 186.714 41.368C189.53 41.368 191.706 42.0187 193.242 43.32C194.799 44.6 195.578 46.616 195.578 49.368V59H189.914ZM184.794 59.288C183.407 59.288 182.234 59.0533 181.274 58.584C180.314 58.1147 179.578 57.4747 179.066 56.664C178.575 55.8533 178.33 54.9467 178.33 53.944C178.33 52.8773 178.596 51.96 179.13 51.192C179.684 50.4027 180.527 49.8053 181.658 49.4C182.788 48.9733 184.25 48.76 186.042 48.76H190.138V51.928H186.874C185.892 51.928 185.199 52.088 184.794 52.408C184.41 52.728 184.218 53.1547 184.218 53.688C184.218 54.2213 184.42 54.648 184.826 54.968C185.231 55.288 185.786 55.448 186.49 55.448C187.151 55.448 187.748 55.288 188.282 54.968C188.836 54.6267 189.242 54.1147 189.498 53.432L190.33 55.672C190.01 56.8667 189.38 57.7733 188.442 58.392C187.524 58.9893 186.308 59.288 184.794 59.288Z" fill="white"/>
</svg>
