<?xml version="1.0" standalone="no"?>
<!DOCTYPE svg PUBLIC "-//W3C//DTD SVG 20010904//EN"
 "http://www.w3.org/TR/2001/REC-SVG-20010904/DTD/svg10.dtd">
<svg version="1.0" xmlns="http://www.w3.org/2000/svg"
 width="66.000000pt" height="66.000000pt" viewBox="0 0 66.000000 66.000000"
 preserveAspectRatio="xMidYMid meet">

<g transform="translate(0.000000,66.000000) scale(0.100000,-0.100000)"
fill="#000000" stroke="none">
<path d="M246 645 c-58 -22 -102 -60 -133 -113 -24 -40 -28 -58 -28 -122 0
-78 15 -121 57 -167 l21 -22 -27 -7 c-40 -10 -56 -40 -56 -109 0 -51 4 -65 23
-83 22 -21 32 -22 224 -22 188 0 202 1 227 21 23 18 26 27 26 84 0 47 -5 69
-19 86 -19 23 -24 24 -193 27 -172 3 -173 4 -202 30 -90 84 -89 232 3 323 94
95 240 92 330 -6 43 -47 61 -95 61 -165 0 -45 -28 -121 -49 -134 -6 -4 -11
-14 -11 -23 0 -24 27 2 52 50 60 118 17 266 -97 333 -57 33 -150 41 -209 19z
m-90 -460 c-3 -8 -2 -15 3 -15 5 0 14 7 21 15 7 8 23 15 36 15 24 0 32 -14 14
-25 -12 -7 -13 -25 -2 -25 5 0 15 11 22 25 15 29 74 38 64 10 -4 -8 -1 -15 5
-15 7 0 14 7 17 15 4 9 19 15 35 15 27 0 29 -2 19 -21 -17 -31 -4 -35 15 -5
19 29 65 37 65 11 0 -20 10 -19 25 2 12 16 14 16 39 0 16 -11 26 -27 26 -42
l0 -25 -180 0 c-113 0 -180 -4 -180 -10 0 -6 67 -10 180 -10 l180 0 0 -24 c0
-27 -24 -56 -45 -56 -7 0 -23 12 -34 28 -13 18 -20 22 -21 11 0 -8 5 -20 12
-27 20 -20 -42 -15 -65 5 -19 17 -20 17 -14 1 11 -32 -47 -23 -69 9 -11 17
-19 23 -22 15 -2 -7 2 -19 8 -27 11 -13 7 -15 -19 -15 -19 0 -34 6 -37 15 -4
8 -11 15 -16 15 -6 0 -8 -7 -4 -15 10 -27 -44 -18 -66 11 -23 29 -35 26 -18
-5 8 -17 8 -21 -4 -21 -22 0 -46 29 -46 56 0 21 5 24 35 24 19 0 35 5 35 10 0
6 -16 10 -35 10 -29 0 -35 4 -35 22 0 12 7 30 17 40 20 22 48 24 39 3z"/>
<path d="M313 613 c9 -2 25 -2 35 0 9 3 1 5 -18 5 -19 0 -27 -2 -17 -5z"/>
<path d="M252 559 c-46 -23 -96 -94 -90 -126 2 -12 11 -2 28 31 31 63 65 88
127 93 91 8 163 -56 163 -146 0 -162 -215 -210 -285 -64 -23 48 -41 57 -30 16
36 -146 254 -166 319 -30 39 83 4 187 -77 226 -55 27 -101 27 -155 0z"/>
<path d="M239 501 c-35 -34 -39 -44 -39 -87 0 -84 47 -133 128 -134 85 0 132
48 132 136 0 41 -5 51 -39 85 -35 35 -44 39 -91 39 -47 0 -56 -4 -91 -39z
m130 13 c6 -5 -29 -54 -39 -54 -9 0 -40 39 -40 51 0 16 62 18 79 3z m-82 -41
c16 -33 13 -36 -20 -20 -26 12 -34 27 -20 40 13 14 28 6 40 -20z m131 7 c2
-13 -46 -45 -55 -37 -1 2 3 16 10 30 13 29 40 32 45 7z m-157 -50 l24 -20 -30
-25 -30 -25 -8 23 c-9 24 -1 67 12 67 5 0 19 -9 32 -20z m183 -4 c3 -13 3 -34
-2 -45 -7 -20 -8 -20 -37 4 l-30 25 24 20 c30 26 38 25 45 -4z m-94 -1 c17
-20 5 -45 -20 -45 -11 0 -23 7 -26 15 -6 15 11 45 26 45 4 0 13 -7 20 -15z
m-54 -57 c-3 -7 -9 -21 -12 -31 -8 -21 -37 -19 -42 3 -1 8 8 20 20 26 32 16
41 16 34 2z m107 -4 c22 -8 18 -37 -4 -42 -9 -2 -19 5 -23 15 -3 10 -9 24 -12
32 -4 9 -2 11 7 7 8 -3 22 -9 32 -12z m-47 -30 c15 -22 15 -27 3 -35 -8 -5
-21 -9 -29 -9 -8 0 -21 4 -29 9 -12 8 -12 13 3 35 21 33 31 33 52 0z"/>
</g>
</svg>
